<svg id="visual" viewBox="0 0 900 600" width="900" height="600" xmlns="http://www.w3.org/2000/svg" xmlns:xlink="http://www.w3.org/1999/xlink" version="1.1"><rect x="0" y="0" width="900" height="600" fill="#333"></rect><path d="M0 51L16.7 55C33.3 59 66.7 67 100 68.5C133.3 70 166.7 65 200 60.5C233.3 56 266.7 52 300 55.7C333.3 59.3 366.7 70.7 400 77.2C433.3 83.7 466.7 85.3 500 84.2C533.3 83 566.7 79 600 70.5C633.3 62 666.7 49 700 48C733.3 47 766.7 58 800 60.8C833.3 63.7 866.7 58.3 883.3 55.7L900 53L900 0L883.3 0C866.7 0 833.3 0 800 0C766.7 0 733.3 0 700 0C666.7 0 633.3 0 600 0C566.7 0 533.3 0 500 0C466.7 0 433.3 0 400 0C366.7 0 333.3 0 300 0C266.7 0 233.3 0 200 0C166.7 0 133.3 0 100 0C66.7 0 33.3 0 16.7 0L0 0Z" fill="#23BE75" stroke-linecap="round" stroke-linejoin="miter"></path></svg>