<svg id="visual" viewBox="0 0 900 600" width="900" height="600" xmlns="http://www.w3.org/2000/svg" xmlns:xlink="http://www.w3.org/1999/xlink" version="1.1"><path d="M0 88L16.7 84.3C33.3 80.7 66.7 73.3 100 63C133.3 52.7 166.7 39.3 200 36C233.3 32.7 266.7 39.3 300 48.3C333.3 57.3 366.7 68.7 400 71C433.3 73.3 466.7 66.7 500 68.7C533.3 70.7 566.7 81.3 600 84.3C633.3 87.3 666.7 82.7 700 71.5C733.3 60.3 766.7 42.7 800 38.3C833.3 34 866.7 43 883.3 47.5L900 52L900 0L883.3 0C866.7 0 833.3 0 800 0C766.7 0 733.3 0 700 0C666.7 0 633.3 0 600 0C566.7 0 533.3 0 500 0C466.7 0 433.3 0 400 0C366.7 0 333.3 0 300 0C266.7 0 233.3 0 200 0C166.7 0 133.3 0 100 0C66.7 0 33.3 0 16.7 0L0 0Z" fill="#09834a" stroke-linecap="round" stroke-linejoin="miter"></path></svg>